<?xml version="1.0" encoding="UTF-8" standalone="no"?>
<svg xmlns="http://www.w3.org/2000/svg" width="100mm" height="100mm" viewBox="0 0 100 100" version="1.1">
    <defs>
        <clipPath id="clip-semicircle">
            <rect width="100" height="75" />
        </clipPath>
    </defs>
    <g>
        <!--
        <rect style="fill:#f0f0f0;" width="100" height="100" rx="20" ry="20" />
        -->

        <circle
           style="fill:none; stroke:#449607; stroke-width:10;"
           cx="50" cy="47.5" r="36" clip-path="url(#clip-semicircle)" />

        <rect
           style="fill:#449607;"
           x="16" y="59" width="21" height="33" rx="6" ry="6"
           transform="rotate(-28.00 27.00 75.00)" />
        <rect
           style="fill:#449607;"
           x="32" y="59" width="6" height="33" rx="1" ry="1"
           transform="rotate(-28.00 27.00 75.00)" />

        <rect
            style="fill:#449607;"
            x="16" y="59" width="21" height="33" rx="6" ry="6"
            transform="scale(-1 1) translate(-100 0) rotate(-28.00 26.00 77.00)" />
        <rect
           style="fill:#449607;"
           x="32" y="59" width="6" height="33" rx="1" ry="1"
           transform="scale(-1 1) translate(-100 0) rotate(-28.00 26.00 77.00)" />

        <circle
           style="fill:none; stroke:#d44d04; stroke-width:3.85;"
           cx="50.00" cy="37.00" r="9.75" />
        <circle
           style="fill:none; stroke:#d44d04; stroke-width:4.15;"
           cx="36.00" cy="56.50" r="10.50" />
        <circle
           style="fill:none; stroke:#d44d04; stroke-width:4.15;"
           cx="64.00" cy="56.50" r="10.50" />
    </g>
</svg>
